<svg xmlns="http://www.w3.org/2000/svg" width="32" height="32" fill="none" viewBox="0 0 32 32"><g id="cpa-native-mark" stroke="#F8FAFC" stroke-linecap="round" stroke-linejoin="round"><path id="cpa-diamond" stroke-width="2.1" d="M16 3.3L28.7 16L16 28.7L3.3 16L16 3.3Z"/><g id="cpa-knot"><path stroke-width="1.8" d="M16 9.1C19.5 11.5 21.2 13.7 21.2 16C21.2 18.3 19.5 20.5 16 22.9C12.5 20.5 10.8 18.3 10.8 16C10.8 13.7 12.5 11.5 16 9.1Z"/><path stroke-width="1.8" d="M9.1 16C11.5 12.5 13.7 10.8 16 10.8C18.3 10.8 20.5 12.5 22.9 16C20.5 19.5 18.3 21.2 16 21.2C13.7 21.2 11.5 19.5 9.1 16Z"/><circle cx="16" cy="16" r="1.8" fill="#F8FAFC" stroke="none"/></g></g></svg>