<svg xmlns="http://www.w3.org/2000/svg" width="1024" height="1024" fill="none" viewBox="0 0 1024 1024"><defs><linearGradient id="nativeBase" x1="128" x2="914" y1="92" y2="930" gradientUnits="userSpaceOnUse"><stop stop-color="#F3E99A"/><stop offset=".42" stop-color="#B8D99B"/><stop offset=".72" stop-color="#7CCBBE"/><stop offset="1" stop-color="#5AB8D5"/></linearGradient><radialGradient id="sunWash" cx="0" cy="0" r="1" gradientTransform="translate(250 210) rotate(52) scale(510)" gradientUnits="userSpaceOnUse"><stop stop-color="#FFF6B5" stop-opacity=".72"/><stop offset=".62" stop-color="#FFF6B5" stop-opacity=".18"/><stop offset="1" stop-color="#FFF6B5" stop-opacity="0"/></radialGradient><radialGradient id="aquaWash" cx="0" cy="0" r="1" gradientTransform="translate(820 780) rotate(38) scale(520)" gradientUnits="userSpaceOnUse"><stop stop-color="#38BDF8" stop-opacity=".42"/><stop offset=".58" stop-color="#38BDF8" stop-opacity=".12"/><stop offset="1" stop-color="#38BDF8" stop-opacity="0"/></radialGradient><filter id="nativeShadow" width="856" height="856" x="84" y="96" color-interpolation-filters="sRGB" filterUnits="userSpaceOnUse"><feDropShadow dx="0" dy="30" flood-color="#15352E" flood-opacity=".25" stdDeviation="34"/></filter></defs><rect width="1024" height="1024" fill="url(#nativeBase)" rx="230"/><rect width="1024" height="1024" fill="url(#sunWash)" rx="230"/><rect width="1024" height="1024" fill="url(#aquaWash)" rx="230"/><rect width="954" height="954" x="35" y="35" stroke="#FFF8C7" stroke-opacity=".34" stroke-width="2" rx="207"/><g id="cpa-native-mark" filter="url(#nativeShadow)"><path id="cpa-diamond" fill="#F5EBA8" fill-opacity=".13" stroke="#1F2A24" stroke-linejoin="round" stroke-width="34" d="M512 150L874 512L512 874L150 512L512 150Z"/><g id="cpa-knot" stroke="#1F2A24" stroke-linecap="round" stroke-linejoin="round"><path stroke-width="40" d="M512 298C624 374 680 446 680 512C680 578 624 650 512 726C400 650 344 578 344 512C344 446 400 374 512 298Z"/><path stroke-width="40" d="M298 512C374 400 446 344 512 344C578 344 650 400 726 512C650 624 578 680 512 680C446 680 374 624 298 512Z"/><path stroke-width="31" d="M404 404C476 332 548 332 620 404C692 476 692 548 620 620C548 692 476 692 404 620C332 548 332 476 404 404Z"/><path stroke="#F6EDA6" stroke-width="18" d="M446 382C494 430 530 466 512 512C494 558 530 594 578 642"/><path stroke="#F6EDA6" stroke-width="18" d="M382 578C430 530 466 494 512 512C558 530 594 494 642 446"/><circle cx="512" cy="512" r="48" fill="#F6EDA6" stroke-width="26"/><circle cx="512" cy="512" r="18" fill="#1F2A24" stroke="none"/></g></g></svg>