<?xml version="1.0" encoding="UTF-8"?>
<svg width="1024" height="1024" viewBox="0 0 1024 1024" fill="none" xmlns="http://www.w3.org/2000/svg">
  <defs>
    <linearGradient id="nativeBase" x1="128" y1="92" x2="914" y2="930" gradientUnits="userSpaceOnUse">
      <stop stop-color="#F3E99A"/>
      <stop offset="0.42" stop-color="#B8D99B"/>
      <stop offset="0.72" stop-color="#7CCBBE"/>
      <stop offset="1" stop-color="#5AB8D5"/>
    </linearGradient>
    <radialGradient id="sunWash" cx="0" cy="0" r="1" gradientUnits="userSpaceOnUse" gradientTransform="translate(250 210) rotate(52) scale(510)">
      <stop stop-color="#FFF6B5" stop-opacity="0.72"/>
      <stop offset="0.62" stop-color="#FFF6B5" stop-opacity="0.18"/>
      <stop offset="1" stop-color="#FFF6B5" stop-opacity="0"/>
    </radialGradient>
    <radialGradient id="aquaWash" cx="0" cy="0" r="1" gradientUnits="userSpaceOnUse" gradientTransform="translate(820 780) rotate(38) scale(520)">
      <stop stop-color="#38BDF8" stop-opacity="0.42"/>
      <stop offset="0.58" stop-color="#38BDF8" stop-opacity="0.12"/>
      <stop offset="1" stop-color="#38BDF8" stop-opacity="0"/>
    </radialGradient>
    <filter id="nativeShadow" x="84" y="96" width="856" height="856" filterUnits="userSpaceOnUse" color-interpolation-filters="sRGB">
      <feDropShadow dx="0" dy="30" stdDeviation="34" flood-color="#15352E" flood-opacity="0.25"/>
    </filter>
  </defs>
  <rect width="1024" height="1024" rx="230" fill="url(#nativeBase)"/>
  <rect width="1024" height="1024" rx="230" fill="url(#sunWash)"/>
  <rect width="1024" height="1024" rx="230" fill="url(#aquaWash)"/>
  <rect x="35" y="35" width="954" height="954" rx="207" stroke="#FFF8C7" stroke-opacity="0.34" stroke-width="2"/>
  <g id="cpa-native-mark" filter="url(#nativeShadow)">
    <path id="cpa-diamond" d="M512 150L874 512L512 874L150 512L512 150Z" fill="#F5EBA8" fill-opacity="0.13" stroke="#1F2A24" stroke-width="34" stroke-linejoin="round"/>
    <g id="cpa-knot" stroke="#1F2A24" stroke-linecap="round" stroke-linejoin="round">
      <path d="M512 298C624 374 680 446 680 512C680 578 624 650 512 726C400 650 344 578 344 512C344 446 400 374 512 298Z" stroke-width="40"/>
      <path d="M298 512C374 400 446 344 512 344C578 344 650 400 726 512C650 624 578 680 512 680C446 680 374 624 298 512Z" stroke-width="40"/>
      <path d="M404 404C476 332 548 332 620 404C692 476 692 548 620 620C548 692 476 692 404 620C332 548 332 476 404 404Z" stroke-width="31"/>
      <path d="M446 382C494 430 530 466 512 512C494 558 530 594 578 642" stroke="#F6EDA6" stroke-width="18"/>
      <path d="M382 578C430 530 466 494 512 512C558 530 594 494 642 446" stroke="#F6EDA6" stroke-width="18"/>
      <circle cx="512" cy="512" r="48" fill="#F6EDA6" stroke-width="26"/>
      <circle cx="512" cy="512" r="18" fill="#1F2A24" stroke="none"/>
    </g>
  </g>
</svg>
